<?xml version="1.0" standalone="no"?>
<!DOCTYPE svg PUBLIC "-//W3C//DTD SVG 20010904//EN"
 "http://www.w3.org/TR/2001/REC-SVG-20010904/DTD/svg10.dtd">
<svg version="1.0" xmlns="http://www.w3.org/2000/svg"
 width="496.000000pt" height="441.000000pt" viewBox="0 0 496.000000 441.000000"
 preserveAspectRatio="xMidYMid meet">
<g transform="translate(0.000000,441.000000) scale(0.100000,-0.100000)"
fill="#000000" stroke="none">
<path d="M1333 3211 c-808 -811 -1059 -1069 -1051 -1078 8 -10 80 -13 314 -13
l304 0 0 -950 0 -950 1515 0 1515 0 0 951 0 951 305 -3 c228 -2 308 0 317 9
10 10 -223 248 -1057 1082 -589 589 -1077 1069 -1085 1069 -8 -1 -493 -481
-1077 -1068z m1062 1019 c-3 -5 -12 -10 -18 -10 -7 0 -6 4 3 10 19 12 23 12
15 0z m30 -2 c-6 -14 2035 -2060 2051 -2057 20 4 35 -2 29 -11 -3 -6 -1 -10 4
-10 6 0 11 -4 11 -8 0 -5 -7 -9 -15 -9 -8 0 -11 5 -8 10 4 6 -1 8 -11 4 -10
-4 -15 -3 -11 3 4 7 -226 10 -667 10 l-673 0 -355 355 c-195 195 -359 355
-365 355 -6 0 -169 -158 -363 -352 l-353 -352 -686 2 c-378 1 -689 4 -691 7
-2 2 4 2 15 -1 13 -4 273 250 1053 1031 569 569 1036 1035 1037 1035 1 0 0 -6
-2 -12z m-110 -78 c-3 -5 -12 -10 -18 -10 -7 0 -6 4 3 10 19 12 23 12 15 0z
m105 -1306 c0 -3 -20 -25 -45 -50 -48 -46 -60 -47 -20 -1 13 15 29 27 35 27 6
0 9 4 6 9 -5 8 2 14 22 20 1 1 2 -2 2 -5z m45 -45 c13 -20 0 -15 -25 9 -23 22
-23 24 -3 13 12 -6 25 -16 28 -22z m145 -586 l-195 -198 -195 198 -196 197
196 198 195 197 195 -197 196 -198 -196 -197z m-320 494 c-19 -18 -37 -31 -39
-30 -8 5 45 62 59 62 8 1 0 -13 -20 -32z m250 18 c11 -13 10 -14 -4 -9 -9 3
-16 10 -16 15 0 13 6 11 20 -6z m-330 -98 c-19 -18 -37 -31 -39 -30 -8 5 45
62 59 62 8 1 0 -13 -20 -32z m410 18 c11 -13 10 -14 -4 -9 -9 3 -16 10 -16 15
0 13 6 11 20 -6z m-496 -100 c-22 -19 -42 -35 -46 -35 -12 0 57 67 71 69 7 0
-4 -15 -25 -34z m594 -10 c-3 -3 -9 2 -12 12 -6 14 -5 15 5 6 7 -7 10 -15 7
-18z m-677 -70 c-21 -19 -41 -35 -44 -35 -11 0 58 67 71 69 6 0 -5 -15 -27
-34z m769 -16 c38 -39 51 -57 31 -45 -5 4 -11 3 -14 -1 -2 -5 -3 -3 -1 3 1 6
-14 28 -33 48 -19 20 -33 36 -30 36 4 0 24 -18 47 -41z m-800 -37 c0 -5 -7 -9
-15 -9 -8 0 -12 4 -9 9 3 4 9 8 15 8 5 0 9 -4 9 -8z m185 -242 c115 -115 214
-210 220 -210 5 0 105 95 220 210 l211 211 130 -131 129 -131 233 0 232 0 2
-772 3 -772 -117 3 -118 3 -2 652 -3 652 -340 0 -340 0 -3 -652 -2 -653 -698
-2 -697 -3 3 773 2 772 228 0 227 0 130 130 c71 72 132 130 135 130 3 0 100
-94 215 -210z m-1765 106 c0 -2 -8 -10 -17 -17 -16 -13 -17 -12 -4 4 13 16 21
21 21 13z m-93 -132 c-3 -3 -12 -4 -19 -1 -8 3 -5 6 6 6 11 1 17 -2 13 -5z
m594 -17 c-7 -7 -14 -8 -21 -1 -6 6 -2 10 12 11 16 2 18 -1 9 -10z m2679 -2
c-7 -9 -16 -12 -19 -8 -4 4 -10 11 -15 16 -5 4 3 7 19 7 24 0 26 -2 15 -15z
m-2398 -797 l3 -793 1200 0 1200 0 3 793 2 793 135 -2 135 -1 0 -929 0 -929
-1475 0 -1475 0 0 930 0 930 135 0 135 0 2 -792z m2103 533 c3 -5 0 -13 -6
-17 -7 -4 -9 -3 -5 4 3 5 0 13 -6 15 -9 4 -10 6 -1 6 6 1 14 -3 18 -8z m-25
-651 l0 -640 -297 0 -298 0 1 343 c1 188 2 476 3 640 l1 297 295 0 295 0 0
-640z"/>
<path d="M2364 4133 c4 -7 3 -13 -2 -13 -6 0 -13 -7 -16 -16 -5 -13 -4 -14 7
-6 8 7 16 9 20 6 3 -3 4 1 3 10 -1 8 -6 19 -11 23 -4 4 -5 2 -1 -4z"/>
<path d="M2460 4116 c0 -2 7 -7 16 -10 8 -3 12 -2 9 4 -6 10 -25 14 -25 6z"/>
<path d="M2285 4040 c6 -30 16 -40 12 -12 -2 12 -6 24 -10 28 -3 4 -4 -4 -2
-16z"/>
<path d="M2540 4036 c0 -2 7 -7 16 -10 8 -3 12 -2 9 4 -6 10 -25 14 -25 6z"/>
<path d="M2205 3960 c6 -30 16 -40 12 -12 -2 12 -6 24 -10 28 -3 4 -4 -4 -2
-16z"/>
<path d="M2620 3956 c0 -2 7 -7 16 -10 8 -3 12 -2 9 4 -6 10 -25 14 -25 6z"/>
<path d="M2125 3880 c6 -30 16 -40 12 -12 -2 12 -6 24 -10 28 -3 4 -4 -4 -2
-16z"/>
<path d="M2700 3876 c0 -2 7 -7 16 -10 8 -3 12 -2 9 4 -6 10 -25 14 -25 6z"/>
<path d="M2044 3806 c1 -8 5 -18 8 -22 4 -3 5 1 4 10 -1 8 -5 18 -8 22 -4 3
-5 -1 -4 -10z"/>
<path d="M2780 3796 c0 -2 7 -7 16 -10 8 -3 12 -2 9 4 -6 10 -25 14 -25 6z"/>
<path d="M1963 3725 c0 -8 4 -12 9 -9 5 3 6 10 3 15 -9 13 -12 11 -12 -6z"/>
<path d="M2860 3716 c0 -2 7 -7 16 -10 8 -3 12 -2 9 4 -6 10 -25 14 -25 6z"/>
<path d="M1885 3640 c6 -30 16 -40 12 -12 -2 12 -6 24 -10 28 -3 4 -4 -4 -2
-16z"/>
<path d="M2940 3636 c0 -2 7 -7 16 -10 8 -3 12 -2 9 4 -6 10 -25 14 -25 6z"/>
<path d="M1805 3560 c6 -30 16 -40 12 -12 -2 12 -6 24 -10 28 -3 4 -4 -4 -2
-16z"/>
<path d="M3020 3556 c0 -2 7 -7 16 -10 8 -3 12 -2 9 4 -6 10 -25 14 -25 6z"/>
<path d="M1723 3485 c0 -8 4 -12 9 -9 5 3 6 10 3 15 -9 13 -12 11 -12 -6z"/>
<path d="M3100 3476 c0 -2 7 -7 16 -10 8 -3 12 -2 9 4 -6 10 -25 14 -25 6z"/>
<path d="M1643 3405 c0 -8 4 -12 9 -9 5 3 6 10 3 15 -9 13 -12 11 -12 -6z"/>
<path d="M3180 3396 c0 -2 7 -7 16 -10 8 -3 12 -2 9 4 -6 10 -25 14 -25 6z"/>
<path d="M1585 3311 c-3 -5 -2 -12 3 -15 5 -3 9 1 9 9 0 17 -3 19 -12 6z"/>
<path d="M3260 3316 c0 -2 7 -7 16 -10 8 -3 12 -2 9 4 -6 10 -25 14 -25 6z"/>
<path d="M1526 3302 c-3 -5 1 -9 9 -9 8 0 12 4 9 9 -3 4 -7 8 -9 8 -2 0 -6 -4
-9 -8z"/>
<path d="M1493 3225 c0 -6 6 -12 12 -12 6 0 12 6 12 12 0 6 -6 12 -12 12 -6 0
-12 -6 -12 -12z"/>
<path d="M3340 3236 c0 -2 7 -7 16 -10 8 -3 12 -2 9 4 -6 10 -25 14 -25 6z"/>
<path d="M1410 3155 c0 -2 6 -8 13 -14 10 -8 14 -7 14 2 0 8 -6 14 -14 14 -7
0 -13 -1 -13 -2z"/>
<path d="M3420 3156 c0 -2 7 -7 16 -10 8 -3 12 -2 9 4 -6 10 -25 14 -25 6z"/>
<path d="M1330 3075 c0 -2 6 -8 13 -14 10 -8 14 -7 14 2 0 8 -6 14 -14 14 -7
0 -13 -1 -13 -2z"/>
<path d="M3500 3076 c0 -2 7 -7 16 -10 8 -3 12 -2 9 4 -6 10 -25 14 -25 6z"/>
<path d="M1250 2995 c0 -2 6 -8 13 -14 10 -8 14 -7 14 2 0 8 -6 14 -14 14 -7
0 -13 -1 -13 -2z"/>
<path d="M3580 2996 c0 -2 7 -7 16 -10 8 -3 12 -2 9 4 -6 10 -25 14 -25 6z"/>
<path d="M1165 2940 c-4 -6 1 -7 12 -3 15 6 16 4 5 -9 -10 -13 -10 -18 -1 -24
7 -4 9 -3 5 4 -3 6 -2 13 4 17 11 7 4 25 -10 25 -5 0 -12 -4 -15 -10z"/>
<path d="M3606 2927 c3 -10 9 -15 12 -12 3 3 0 11 -7 18 -10 9 -11 8 -5 -6z"/>
<path d="M1082 2857 c-8 -10 -6 -16 10 -26 11 -7 17 -8 14 -2 -4 5 -2 12 4 16
11 7 4 25 -9 25 -5 0 -13 -6 -19 -13z m28 -1 c0 -3 -4 -8 -10 -11 -5 -3 -10
-1 -10 4 0 6 5 11 10 11 6 0 10 -2 10 -4z"/>
<path d="M2535 2801 c-3 -5 -2 -12 3 -15 5 -3 9 1 9 9 0 17 -3 19 -12 6z"/>
<path d="M1009 2788 c-6 -12 -4 -46 2 -42 4 2 5 12 2 21 -5 12 -3 14 7 8 9 -5
11 -4 6 3 -7 11 -14 15 -17 10z"/>
<path d="M3818 2753 c7 -3 16 -2 19 1 4 3 -2 6 -13 5 -11 0 -14 -3 -6 -6z"/>
<path d="M898 2676 c11 -23 41 -30 38 -10 -1 7 -6 17 -10 21 -4 4 -7 4 -6 -2
5 -24 -1 -27 -16 -9 -15 18 -15 18 -6 0z"/>
<path d="M3898 2673 c7 -3 16 -2 19 1 4 3 -2 6 -13 5 -11 0 -14 -3 -6 -6z"/>
<path d="M820 2592 c9 -19 14 -21 26 -12 7 7 11 16 8 21 -6 11 -14 12 -13 2 4
-22 -3 -25 -17 -7 -14 18 -15 18 -4 -4z"/>
<path d="M3978 2593 c7 -3 16 -2 19 1 4 3 -2 6 -13 5 -11 0 -14 -3 -6 -6z"/>
<path d="M740 2512 c9 -19 14 -21 26 -12 7 7 11 16 8 21 -6 11 -14 12 -13 2 4
-22 -3 -25 -17 -7 -14 18 -15 18 -4 -4z"/>
<path d="M4058 2513 c7 -3 16 -2 19 1 4 3 -2 6 -13 5 -11 0 -14 -3 -6 -6z"/>
<path d="M688 2463 c0 -5 -2 -12 -3 -18 -2 -5 -3 -14 -4 -19 0 -6 -8 -1 -17
10 -14 18 -15 18 -4 -5 13 -26 33 -16 35 19 2 19 -3 28 -7 13z"/>
<path d="M4138 2433 c7 -3 16 -2 19 1 4 3 -2 6 -13 5 -11 0 -14 -3 -6 -6z"/>
<path d="M581 2347 c8 -14 13 -16 25 -7 17 15 10 29 -15 27 -16 -1 -18 -5 -10
-20z m29 9 c0 -3 -4 -8 -10 -11 -5 -3 -10 -1 -10 4 0 6 5 11 10 11 6 0 10 -2
10 -4z"/>
<path d="M4218 2353 c7 -3 16 -2 19 1 4 3 -2 6 -13 5 -11 0 -14 -3 -6 -6z"/>
<path d="M531 2276 c-9 -10 -9 -16 -1 -21 6 -4 10 -3 9 2 -3 20 2 27 11 13 6
-9 10 -10 10 -3 0 19 -17 24 -29 9z"/>
<path d="M4298 2273 c7 -3 16 -2 19 1 4 3 -2 6 -13 5 -11 0 -14 -3 -6 -6z"/>
<path d="M2378 2723 c-8 -10 -18 -25 -22 -33 -5 -9 -2 -8 7 2 8 10 18 14 22
10 5 -4 5 -2 1 5 -3 6 2 16 11 22 10 6 13 11 7 11 -6 0 -18 -8 -26 -17z"/>
<path d="M2301 2645 c-17 -20 -31 -39 -31 -43 0 -4 7 1 14 10 7 10 16 16 19
13 4 -3 5 -2 2 2 -6 8 15 34 24 28 4 -2 8 2 8 10 0 20 -1 20 -36 -20z"/>
<path d="M2485 2671 c-3 -5 -2 -12 3 -15 5 -3 9 1 9 9 0 17 -3 19 -12 6z"/>
<path d="M2221 2565 c-17 -20 -31 -39 -31 -43 0 -4 7 1 14 10 7 10 16 16 19
13 4 -3 5 -2 2 2 -6 8 15 34 24 28 4 -2 8 2 8 10 0 20 -1 20 -36 -20z"/>
<path d="M2565 2591 c-3 -5 -2 -12 3 -15 5 -3 9 1 9 9 0 17 -3 19 -12 6z"/>
<path d="M2154 2498 c-12 -14 -13 -18 -3 -10 9 6 18 10 21 7 2 -3 5 2 5 10 0
19 0 19 -23 -7z"/>
<path d="M2645 2511 c-3 -5 -2 -12 3 -15 5 -3 9 1 9 9 0 17 -3 19 -12 6z"/>
<path d="M2116 2454 c-23 -23 -20 -30 4 -9 11 10 20 20 20 22 0 7 -9 2 -24
-13z"/>
<path d="M2125 2430 c-3 -5 -5 -10 -3 -11 29 -7 36 -5 31 7 -6 16 -19 18 -28
4z"/>
<path d="M2105 2378 c9 -22 33 -30 41 -15 4 7 3 9 -1 4 -5 -4 -17 1 -27 10
-17 15 -18 15 -13 1z"/>
<path d="M2185 2298 c9 -22 33 -30 41 -15 4 7 3 9 -1 4 -5 -4 -17 1 -27 10
-17 15 -18 15 -13 1z"/>
<path d="M2265 2218 c9 -22 33 -30 41 -15 4 7 3 9 -1 4 -5 -4 -17 1 -27 10
-17 15 -18 15 -13 1z"/>
<path d="M2370 2148 c15 -19 12 -32 -5 -18 -9 7 -15 8 -15 2 0 -14 28 -23 36
-11 3 6 -1 17 -10 25 -9 8 -11 9 -6 2z"/>
<path d="M1708 1882 l-378 -2 0 -390 c0 -215 3 -390 8 -390 37 0 801 -1 815 0
16 0 17 25 17 390 0 339 -2 390 -15 391 -41 4 -98 4 -447 1z m54 -139 c-1 -65
-3 -141 -5 -169 -2 -56 12 -79 44 -71 10 3 19 2 19 -1 0 -9 282 -6 308 3 16 4
20 1 20 -20 0 -30 -5 -31 -30 -8 -15 14 -18 14 -13 2 5 -12 0 -15 -22 -12 -85
9 -301 7 -311 -3 -6 -7 -8 -15 -4 -20 4 -4 -1 -4 -10 -1 -12 4 -15 2 -11 -9 3
-7 9 -14 15 -14 5 0 6 -5 3 -10 -8 -13 -8 -267 0 -280 3 -6 -3 -10 -14 -10
-11 0 -23 5 -27 12 -4 7 -3 8 4 4 16 -10 15 7 0 23 -11 11 -10 13 5 8 16 -6
16 -5 2 17 -8 12 -13 25 -10 27 2 3 5 57 6 122 1 94 -2 119 -15 132 -9 9 -20
14 -24 11 -13 -8 -284 -9 -307 -1 -17 6 -17 5 -5 -5 13 -9 12 -11 -5 -8 -14 2
-21 12 -23 32 -2 18 0 26 7 21 6 -3 9 -9 7 -13 -8 -13 334 -4 350 9 12 10 15
42 14 173 -1 89 -1 164 -1 169 1 4 9 7 19 7 15 0 17 -11 14 -117z m-52 -63 l0
-160 -170 0 -170 0 0 160 0 160 170 0 170 0 0 -160z m420 0 l0 -160 -175 0
-175 0 1 160 1 160 174 0 174 0 0 -160z m-422 -385 l2 -155 -170 0 -170 0 0
155 0 155 168 0 169 0 1 -155z m422 0 l0 -155 -174 0 -175 0 0 154 0 155 174
1 175 0 0 -155z"/>
<path d="M2935 1360 c-3 -5 1 -20 9 -32 9 -12 16 -17 16 -11 0 7 -4 15 -10 18
-5 3 -10 11 -10 16 0 6 5 7 12 3 7 -4 8 -3 4 4 -9 15 -13 15 -21 2z"/>
<path d="M2783 1323 c-30 -6 -71 -49 -78 -84 -21 -96 90 -177 171 -124 27 18
54 70 54 106 0 26 -26 72 -49 86 -22 14 -70 22 -98 16z m82 -63 c40 -44 8
-120 -50 -120 -42 0 -81 46 -69 82 17 58 82 78 119 38z"/>
<path d="M2920 1321 c0 -6 4 -13 10 -16 6 -3 7 1 4 9 -7 18 -14 21 -14 7z"/>
<path d="M2919 1093 c-13 -16 -12 -17 4 -4 16 13 21 21 13 21 -2 0 -10 -8 -17
-17z"/>
<path d="M2836 1062 c-2 -4 4 -8 14 -8 10 0 16 4 14 8 -3 4 -9 8 -14 8 -5 0
-11 -4 -14 -8z"/>
</g>
</svg>
