<svg xmlns="http://www.w3.org/2000/svg" width="100%" height="auto" viewBox="0 0 496 441" version="1.1">
	<path d="M 133.200 119.305 C 52.193 200.325, 27.068 226.013, 27.563 227.305 C 28.156 228.848, 30.987 229, 59.107 229 L 90 229 90 324 L 90 419 241.500 419 L 393 419 393 324.500 L 393 230 423.378 230 C 449.710 230, 453.928 229.792, 455.053 228.436 C 456.178 227.081, 442.107 212.626, 349.432 119.936 C 290.626 61.121, 241.832 13, 241 13 C 240.168 13, 191.658 60.837, 133.200 119.305 M 138 121.500 L 35.504 224 102.507 224 L 169.511 224 204.500 189 C 223.744 169.750, 240.169 154, 241 154 C 241.831 154, 258.481 169.975, 278 189.500 L 313.489 225 380.493 225 L 447.496 225 344.500 122 C 287.852 65.350, 241.277 19, 241 19 C 240.723 19, 194.373 65.125, 138 121.500 M 222.003 180.497 L 202.519 200 222.003 219.503 L 241.487 239.006 260.990 219.503 L 280.494 200 260.990 180.497 L 241.487 160.994 222.003 180.497 M 184.500 216 L 171.529 229 148.764 229 L 126 229 126 306 L 126 383 195.493 383 L 264.986 383 265.243 317.750 L 265.500 252.500 299.500 252.500 L 333.500 252.500 333.757 317.750 L 334.014 383 345.507 383 L 357 383 357 306.500 L 357 230 334.330 230 L 311.660 230 298.054 216.518 L 284.447 203.035 263.482 224.018 C 251.952 235.558, 242.060 245, 241.500 245 C 240.940 245, 231.040 235.550, 219.500 224 C 207.960 212.450, 198.282 203, 197.995 203 C 197.707 203, 191.634 208.850, 184.500 216 M 95 321.500 L 95 414 241.500 414 L 388 414 388 322 L 388 230 375.006 230 L 362.012 230 361.756 308.750 L 361.500 387.500 241.500 387.500 L 121.500 387.500 121.244 308.250 L 120.988 229 107.994 229 L 95 229 95 321.500 M 134.250 252.662 C 133.280 253.054, 133 261.864, 133 291.976 C 133 326.443, 133.177 330.854, 134.582 331.393 C 136.647 332.186, 213.353 332.186, 215.418 331.393 C 216.823 330.854, 217 326.445, 217 292 C 217 257.555, 216.823 253.146, 215.418 252.607 C 213.530 251.882, 136.052 251.935, 134.250 252.662 M 270 285.690 L 270 315.380 273.006 312.305 C 277.897 307.302, 284.809 307.082, 289.506 311.779 C 297.813 320.085, 289.732 333.863, 278.333 330.829 C 276.591 330.365, 274.004 328.604, 272.583 326.916 L 270 323.847 270 353.423 L 270 383 299.500 383 L 329 383 329 319.500 L 329 256 299.500 256 L 270 256 270 285.690 M 137.225 272.750 L 137.500 288.500 153.750 288.775 L 170 289.050 170 273.025 L 170 257 153.475 257 L 136.949 257 137.225 272.750 M 179 273 L 179 289 195.500 289 L 212 289 212 273 L 212 257 195.500 257 L 179 257 179 273 M 137 312 L 137 327 153.500 327 L 170 327 170 312 L 170 297 153.500 297 L 137 297 137 312 M 179 312 L 179 327 195.500 327 L 212 327 212 312 L 212 297 195.500 297 L 179 297 179 312 M 277.167 314.750 C 273.988 317.459, 273.915 321.915, 277 325 C 281.326 329.326, 288 326.024, 288 319.557 C 288 313.802, 281.609 310.966, 277.167 314.750" stroke="none" fill="black" fill-rule="evenodd"/>
</svg>
